<svg width="43" height="7" viewBox="0 0 43 7" fill="none" xmlns="http://www.w3.org/2000/svg">
<path d="M3.5 3.05176e-05L4.2858 2.41847H6.8287L4.77145 3.91315L5.55725 6.33159L3.5 4.83691L1.44275 6.33159L2.22855 3.91315L0.171302 2.41847H2.7142L3.5 3.05176e-05Z" fill="#9D9D9D"/>
<path d="M12.5 3.05176e-05L13.2858 2.41847H15.8287L13.7714 3.91315L14.5572 6.33159L12.5 4.83691L10.4428 6.33159L11.2286 3.91315L9.1713 2.41847H11.7142L12.5 3.05176e-05Z" fill="#9D9D9D"/>
<path d="M21.5 3.05176e-05L22.2858 2.41847H24.8287L22.7714 3.91315L23.5572 6.33159L21.5 4.83691L19.4428 6.33159L20.2286 3.91315L18.1713 2.41847H20.7142L21.5 3.05176e-05Z" fill="#9D9D9D"/>
<path d="M30.5 3.05176e-05L31.2858 2.41847H33.8287L31.7714 3.91315L32.5572 6.33159L30.5 4.83691L28.4428 6.33159L29.2286 3.91315L27.1713 2.41847H29.7142L30.5 3.05176e-05Z" fill="#9D9D9D"/>
<path d="M39.5 3.05176e-05L40.2858 2.41847H42.8287L40.7714 3.91315L41.5572 6.33159L39.5 4.83691L37.4428 6.33159L38.2286 3.91315L36.1713 2.41847H38.7142L39.5 3.05176e-05Z" fill="#9D9D9D"/>
</svg>
