<svg width="56" height="32" viewBox="0 0 56 32" fill="none" xmlns="http://www.w3.org/2000/svg">
<path d="M56 0L15.031 28.4766C11.6337 30.823 8.77997 32 6.47228 32C3.85893 32 1.96191 30.5068 0.785905 27.5167C0.0462326 25.597 -0.170769 23.163 0.132567 20.2109C0.435902 17.2589 1.24324 14.1164 2.54992 10.7721C3.63959 8.06761 5.42461 4.51375 7.90963 0.106654C7.06674 2.27274 6.44865 4.65109 6.08028 7.14581C5.42694 11.6977 6.01495 15.0382 7.84429 17.1713C8.71463 18.1655 9.91164 18.6644 11.4377 18.6644C12.6557 18.6644 14.0277 18.3445 15.5537 17.7046L56 0Z" fill="black"/>
</svg>
